<?xml version="1.0" encoding="UTF-8" standalone="no"?><!DOCTYPE svg PUBLIC "-//W3C//DTD SVG 1.1//EN" "http://www.w3.org/Graphics/SVG/1.1/DTD/svg11.dtd"><svg width="100%" height="100%" viewBox="0 0 86 86" version="1.1" xmlns="http://www.w3.org/2000/svg" xmlns:xlink="http://www.w3.org/1999/xlink" xml:space="preserve" xmlns:serif="http://www.serif.com/" style="fill-rule:evenodd;clip-rule:evenodd;stroke-linejoin:round;stroke-miterlimit:2;"><rect id="Artboard1" x="0" y="0" width="85.039" height="85.039" style="fill:none;"/><path d="M12.454,72.502c0.01,1.337 0.937,2.492 2.24,2.791c1.384,0.232 3.396,0.49 6.005,0.557c2.577,0.066 5.14,-0.405 8.389,-1.359c3.354,-0.984 6.497,-3.115 9.932,-5.834c3.911,-3.094 7.354,-7.592 10.474,-13.461c1.572,-2.958 2.726,-6.409 3.87,-10.216c0.725,-4.087 1.732,-7.512 2.989,-10.437c1.009,-2.347 1.79,-4.456 2.964,-6.194c1.066,-1.578 1.966,-2.982 3.007,-4.216c3.854,-4.57 7.224,-7.328 8.978,-8.62c0.797,-0.533 1.275,-1.429 1.275,-2.388c0.009,-0.181 0.009,-0.368 0.009,-0.557c0.001,-1.346 -0.93,-2.513 -2.243,-2.812c-1.371,-0.231 -3.35,-0.487 -5.908,-0.564c-2.563,-0.077 -5.099,0.378 -8.339,1.307c-3.342,0.958 -6.466,3.056 -9.898,5.754c-3.884,3.054 -7.302,7.517 -10.392,13.355c-1.551,2.929 -2.676,6.355 -3.795,10.13c-0.728,4.132 -1.739,7.6 -3.019,10.559c-1.027,2.374 -1.842,4.506 -3.044,6.262c-1.089,1.592 -1.994,3.034 -3.091,4.251c-0.937,1.038 -1.502,2.08 -2.364,2.945c-2.918,2.924 -5.329,4.795 -6.731,5.789c-0.82,0.535 -1.311,1.451 -1.304,2.43c-0.007,0.172 -0.005,0.35 -0.004,0.528Z" style="fill:#454545;"/></svg>