<?xml version="1.0" encoding="UTF-8" standalone="no"?><!DOCTYPE svg PUBLIC "-//W3C//DTD SVG 1.1//EN" "http://www.w3.org/Graphics/SVG/1.1/DTD/svg11.dtd"><svg width="100%" height="100%" viewBox="0 0 86 86" version="1.1" xmlns="http://www.w3.org/2000/svg" xmlns:xlink="http://www.w3.org/1999/xlink" xml:space="preserve" xmlns:serif="http://www.serif.com/" style="fill-rule:evenodd;clip-rule:evenodd;stroke-linejoin:round;stroke-miterlimit:2;"><rect id="Artboard1" x="0" y="0" width="85.039" height="85.039" style="fill:none;"/><path d="M9.854,72.195c0.008,1.259 0.563,2.453 1.521,3.271c0.958,0.818 2.224,1.179 3.469,0.989c9.022,-1.521 27.87,-7.57 35.152,-31.89c4.572,-15.27 15.929,-19.554 21.712,-20.754c2.026,-0.398 3.488,-2.175 3.488,-4.24c0.015,-2.026 0.015,-4.543 0.015,-6.701c-0,-1.261 -0.55,-2.46 -1.505,-3.283c-0.955,-0.824 -2.222,-1.191 -3.469,-1.005c-8.963,1.476 -27.577,7.421 -34.822,31.617c-4.628,15.456 -16.229,19.814 -22.101,21.04c-2.035,0.401 -3.498,2.191 -3.485,4.265c-0.002,2.025 0.013,4.537 0.025,6.691Z" style="fill:#454545;"/></svg>