<?xml version="1.0" encoding="utf-8"?>
<svg height="24px" viewBox="0 -960 960 960" width="24px" fill="#5f6368" xmlns="http://www.w3.org/2000/svg" xmlns:bx="https://boxy-svg.com">
  <defs/>
  <g>
    <path d="m480-120-58-52q-101-91-167-157T150-447.5Q111-500 95.5-544T80-634q0-94 63-157t157-63q52 0 99 22t81 62q34-40 81-62t99-22q94 0 157 63t63 157q0 46-15.5 90T810-447.5Q771-395 705-329T538-172l-58 52Zm0-108q96-86 158-147.5t98-107q36-45.5 50-81t14-70.5q0-60-40-100t-100-40q-47 0-87 26.5T518-680h-76q-15-41-55-67.5T300-774q-60 0-100 40t-40 100q0 35 14 70.5t50 81q36 45.5 98 107T480-228Zm0-273Z" style="fill: rgb(234, 107, 107);"/>
    <ellipse style="fill: rgb(234, 107, 107);" cx="307.15" cy="-605.596" rx="187.772" ry="210.156"/>
    <ellipse style="fill: rgb(234, 107, 107);" cx="646.632" cy="-608.084" rx="186.528" ry="212.642"/>
    <path d="M 648.123 -1228.105 L 982.526 -818.739 L 313.719 -818.739 L 648.123 -1228.105 Z" style="transform-box: fill-box; transform-origin: 50% 50%; fill: rgb(234, 107, 107);" transform="matrix(-0.999756, -0.022112, 0.022112, -0.999756, -164.671061, 672.99314)" bx:shape="triangle 313.719 -1228.105 668.807 409.366 0.5 0 1@dc415a6a"/>
  </g>
</svg>