<?xml version="1.0" encoding="UTF-8" standalone="no"?><!DOCTYPE svg PUBLIC "-//W3C//DTD SVG 1.1//EN" "http://www.w3.org/Graphics/SVG/1.1/DTD/svg11.dtd"><svg width="100%" height="100%" viewBox="0 0 86 86" version="1.1" xmlns="http://www.w3.org/2000/svg" xmlns:xlink="http://www.w3.org/1999/xlink" xml:space="preserve" xmlns:serif="http://www.serif.com/" style="fill-rule:evenodd;clip-rule:evenodd;stroke-linejoin:round;stroke-miterlimit:2;"><rect id="Artboard1" x="0" y="0" width="85.039" height="85.039" style="fill:none;"/><path d="M42.52,8.018c-19.042,0 -34.502,15.46 -34.502,34.502c0,19.041 15.46,34.501 34.502,34.501c19.041,0 34.501,-15.46 34.501,-34.501c0,-19.042 -15.46,-34.502 -34.501,-34.502Zm-0,6c15.73,0 28.501,12.771 28.501,28.502c0,15.73 -12.771,28.501 -28.501,28.501c-15.731,0 -28.502,-12.771 -28.502,-28.501c0,-15.731 12.771,-28.502 28.502,-28.502Z" style="fill:#454545;"/><rect x="27.278" y="42.52" width="15.241" height="15.241" style="fill:#454545;"/><rect x="42.52" y="57.761" width="15.241" height="15.241" style="fill:#454545;"/><rect x="57.761" y="42.52" width="15.241" height="15.241" style="fill:#454545;"/><rect x="12.037" y="27.278" width="15.241" height="15.241" style="fill:#454545;"/><rect x="27.278" y="12.037" width="15.241" height="15.241" style="fill:#454545;"/><rect x="42.52" y="27.278" width="15.241" height="15.241" style="fill:#454545;"/><path d="M27.278,68.78l-10.19,-11.019l10.19,-0l0,11.019Z" style="fill:#454545;"/><path d="M57.761,13.382l14.524,13.896l-14.524,0l-0,-13.896Z" style="fill:#454545;"/></svg>