<?xml version="1.0" encoding="UTF-8" standalone="no"?><!DOCTYPE svg PUBLIC "-//W3C//DTD SVG 1.1//EN" "http://www.w3.org/Graphics/SVG/1.1/DTD/svg11.dtd"><svg width="100%" height="100%" viewBox="0 0 86 86" version="1.1" xmlns="http://www.w3.org/2000/svg" xmlns:xlink="http://www.w3.org/1999/xlink" xml:space="preserve" xmlns:serif="http://www.serif.com/" style="fill-rule:evenodd;clip-rule:evenodd;stroke-linejoin:round;stroke-miterlimit:2;"><rect id="Artboard1" x="0" y="0" width="85.039" height="85.039" style="fill:none;"/><path d="M10.808,44.838c-4.642,8.257 -3.453,18.919 3.571,25.942c7.042,7.042 17.742,8.219 26.007,3.534c0.856,0.474 1.954,0.347 2.68,-0.378l36.159,-36.16c0.878,-0.878 0.878,-2.303 -0,-3.182l-28.9,-28.899c-0.878,-0.879 -2.303,-0.879 -3.182,0l-36.159,36.159c-0.815,0.815 -0.874,2.101 -0.176,2.984Zm26.153,26.183c-6.356,2.962 -14.157,1.82 -19.4,-3.423c-5.243,-5.243 -6.385,-13.044 -3.424,-19.4c0,0 22.824,22.823 22.824,22.823l-0,0Zm-12.824,-19.196l8.934,8.934l32.977,-32.977l-8.934,-8.934l-32.977,32.977Z" style="fill:#454545;"/></svg>